<?xml version="1.0" encoding="utf-8"?>
<!-- Generator: Adobe Illustrator 20.1.0, SVG Export Plug-In . SVG Version: 6.00 Build 0)  -->
<svg version="1.1" id="Menu" xmlns="http://www.w3.org/2000/svg" xmlns:xlink="http://www.w3.org/1999/xlink" x="0px" y="0px"
	 viewBox="0 0 20 20" style="enable-background:new 0 0 20 20;" xml:space="preserve">
<style type="text/css">
	.st0{fill:#333333;}
</style>
<path class="st0" d="M16.4,9H3.6C3,9,3,9.4,3,10c0,0.6,0,1,0.6,1h12.8c0.6,0,0.6-0.4,0.6-1S17,9,16.4,9z M16.4,13H3.6
	C3,13,3,13.4,3,14c0,0.6,0,1,0.6,1h12.8c0.6,0,0.6-0.4,0.6-1S17,13,16.4,13z M3.6,7h12.8C17,7,17,6.6,17,6s0-1-0.6-1H3.6
	C3,5,3,5.4,3,6S3,7,3.6,7z"/>
</svg>
